<svg width="1000" height="1000" viewBox="0 0 1000 1000" fill="none" xmlns="http://www.w3.org/2000/svg">
<rect width="1000" height="1000" fill="black"/>
<path d="M172.014 596V566.205H218.684C232.131 566.205 243.249 563.744 252.038 558.822C260.915 553.9 267.595 546.605 272.077 536.938C276.56 527.182 278.801 515.009 278.801 500.419C278.801 485.829 276.604 473.7 272.209 464.032C267.814 454.276 261.223 446.981 252.434 442.147C243.732 437.313 232.834 434.896 219.738 434.896H170.959V405.102H221.584C240.48 405.102 256.784 408.925 270.495 416.571C284.206 424.13 294.709 435.072 302.004 449.398C309.299 463.725 312.946 480.731 312.946 500.419C312.946 520.194 309.255 537.245 301.872 551.571C294.577 565.897 283.986 576.884 270.1 584.53C256.213 592.177 239.646 596 220.397 596H172.014ZM190.075 596H155.798V405.102H190.075V596ZM315.588 596L382.825 405.102H425.144L492.38 596H455.73L404.709 444.125H403.127L352.107 596H315.588ZM454.148 521.117V548.671H353.557V521.117H454.148ZM671.155 500.551C671.155 520.59 667.376 538.036 659.817 552.89C652.346 567.655 641.975 578.993 628.704 586.903C615.432 594.726 600.403 598.637 583.616 598.637C566.829 598.637 551.8 594.726 538.528 586.903C525.345 578.993 514.973 567.611 507.415 552.758C499.856 537.904 496.077 520.502 496.077 500.551C496.077 480.336 499.856 462.846 507.415 448.08C514.973 433.314 525.345 422.021 538.528 414.198C551.8 406.376 566.829 402.465 583.616 402.465C600.403 402.465 615.432 406.376 628.704 414.198C641.975 422.021 652.346 433.314 659.817 448.08C667.376 462.846 671.155 480.336 671.155 500.551ZM636.746 500.551C636.746 486.312 634.505 474.14 630.022 464.032C625.628 453.925 619.431 446.278 611.433 441.093C603.523 435.907 594.251 433.314 583.616 433.314C573.157 433.314 563.885 435.907 555.799 441.093C547.801 446.278 541.56 453.925 537.078 464.032C532.683 474.14 530.486 486.312 530.486 500.551C530.486 514.789 532.683 526.962 537.078 537.069C541.56 547.177 547.801 554.823 555.799 560.009C563.885 565.194 573.157 567.787 583.616 567.787C594.251 567.787 603.523 565.194 611.433 560.009C619.431 554.823 625.628 547.177 630.022 537.069C634.505 526.962 636.746 514.789 636.746 500.551ZM853.226 596H822.772L732.464 465.614H730.75V596H696.473V405.102H727.322L817.366 535.619H819.08V405.102H853.226V596Z" fill="white"/>
<path d="M425.008 645.113C424.832 644.316 424.434 643.701 423.812 643.268C423.203 642.834 422.395 642.617 421.387 642.617C420.684 642.617 420.051 642.729 419.488 642.951C418.938 643.162 418.498 643.467 418.17 643.865C417.854 644.252 417.695 644.691 417.695 645.184C417.695 645.746 417.941 646.232 418.434 646.643C418.926 647.053 419.682 647.369 420.701 647.592L423.742 648.295C425.5 648.693 426.812 649.32 427.68 650.176C428.547 651.02 428.98 652.115 428.98 653.463C428.98 654.611 428.664 655.637 428.031 656.539C427.41 657.43 426.514 658.127 425.342 658.631C424.17 659.135 422.775 659.387 421.158 659.387C419.646 659.387 418.34 659.17 417.238 658.736C416.137 658.291 415.258 657.652 414.602 656.82C413.957 655.977 413.553 654.969 413.389 653.797H417.238C417.414 654.641 417.824 655.279 418.469 655.713C419.125 656.146 420.01 656.363 421.123 656.363C421.92 656.363 422.617 656.264 423.215 656.064C423.824 655.854 424.293 655.549 424.621 655.15C424.961 654.752 425.131 654.289 425.131 653.762C425.131 653.141 424.891 652.625 424.41 652.215C423.941 651.805 423.197 651.494 422.178 651.283L419.207 650.615C417.484 650.229 416.178 649.59 415.287 648.699C414.396 647.809 413.957 646.707 413.969 645.395C413.969 644.27 414.273 643.273 414.883 642.406C415.504 641.539 416.371 640.865 417.484 640.385C418.598 639.904 419.893 639.664 421.369 639.664C422.752 639.664 423.971 639.893 425.025 640.35C426.08 640.795 426.912 641.428 427.521 642.248C428.131 643.068 428.488 644.023 428.594 645.113H425.008ZM431.969 639.91H435.714V659H431.969V639.91ZM433.833 636.957C433.411 636.957 433.018 636.863 432.655 636.676C432.292 636.477 432.005 636.207 431.794 635.867C431.583 635.516 431.477 635.141 431.477 634.742C431.477 634.332 431.583 633.963 431.794 633.635C432.005 633.295 432.292 633.025 432.655 632.826C433.018 632.627 433.411 632.527 433.833 632.527C434.278 632.527 434.682 632.627 435.046 632.826C435.409 633.025 435.69 633.295 435.889 633.635C436.1 633.963 436.206 634.332 436.206 634.742C436.206 635.141 436.1 635.516 435.889 635.867C435.69 636.207 435.409 636.477 435.046 636.676C434.682 636.863 434.278 636.957 433.833 636.957ZM443.326 659H439.581V639.91H443.167V643.021H443.414C443.882 641.955 444.585 641.129 445.523 640.543C446.472 639.957 447.65 639.664 449.056 639.664C450.369 639.664 451.505 639.939 452.466 640.49C453.439 641.029 454.189 641.838 454.716 642.916C455.255 643.994 455.525 645.307 455.525 646.854V659H451.781V647.293C451.781 646.379 451.622 645.594 451.306 644.938C450.99 644.281 450.533 643.783 449.935 643.443C449.337 643.092 448.611 642.916 447.755 642.916C446.888 642.916 446.121 643.104 445.453 643.479C444.785 643.842 444.263 644.387 443.888 645.113C443.513 645.828 443.326 646.684 443.326 647.68V659ZM467.461 659.387C465.645 659.387 464.057 658.965 462.697 658.121C461.35 657.277 460.313 656.111 459.586 654.623C458.871 653.135 458.514 651.441 458.514 649.543C458.514 647.609 458.883 645.898 459.621 644.41C460.36 642.91 461.397 641.744 462.733 640.912C464.069 640.08 465.621 639.664 467.391 639.664C468.844 639.664 470.145 639.928 471.293 640.455C472.442 640.982 473.361 641.732 474.053 642.705C474.744 643.678 475.16 644.803 475.301 646.08H471.645C471.516 645.471 471.264 644.92 470.889 644.428C470.526 643.924 470.057 643.525 469.483 643.232C468.908 642.939 468.24 642.793 467.479 642.793C466.447 642.793 465.539 643.062 464.754 643.602C463.981 644.141 463.377 644.908 462.944 645.904C462.51 646.9 462.293 648.078 462.293 649.438C462.293 650.809 462.504 652.004 462.926 653.023C463.36 654.031 463.963 654.811 464.736 655.361C465.51 655.912 466.424 656.188 467.479 656.188C468.182 656.188 468.82 656.064 469.395 655.818C469.981 655.561 470.467 655.186 470.854 654.693C471.24 654.201 471.504 653.615 471.645 652.936H475.301C475.16 654.178 474.75 655.285 474.07 656.258C473.403 657.23 472.5 657.998 471.363 658.561C470.227 659.111 468.926 659.387 467.461 659.387ZM486.376 659.387C484.536 659.387 482.925 658.982 481.542 658.174C480.171 657.365 479.116 656.223 478.378 654.746C477.64 653.27 477.27 651.553 477.27 649.596C477.27 647.639 477.64 645.91 478.378 644.41C479.116 642.898 480.153 641.732 481.489 640.912C482.825 640.08 484.366 639.664 486.112 639.664C487.659 639.664 489.071 639.998 490.349 640.666C491.626 641.322 492.651 642.371 493.425 643.812C494.198 645.242 494.585 647.053 494.585 649.244V650.562H479.38V647.768H490.911C490.911 646.795 490.712 645.934 490.313 645.184C489.927 644.422 489.37 643.824 488.643 643.391C487.917 642.957 487.085 642.74 486.147 642.74C485.128 642.74 484.231 642.986 483.458 643.479C482.684 643.971 482.081 644.633 481.647 645.465C481.214 646.297 480.997 647.188 480.997 648.137V650.316C480.997 651.57 481.22 652.648 481.665 653.551C482.122 654.453 482.755 655.139 483.563 655.607C484.384 656.076 485.327 656.311 486.393 656.311C487.073 656.311 487.688 656.217 488.239 656.029C488.79 655.83 489.259 655.584 489.645 655.291C490.032 654.986 490.331 654.629 490.542 654.219H494.356C494.075 655.25 493.571 656.152 492.845 656.926C492.118 657.699 491.198 658.303 490.085 658.736C488.983 659.17 487.747 659.387 486.376 659.387ZM505.573 656.188L514.414 647.275C515.481 646.174 516.301 645.283 516.875 644.604C517.45 643.924 517.877 643.256 518.159 642.6C518.451 641.932 518.598 641.24 518.598 640.525C518.598 639.717 518.393 639.002 517.983 638.381C517.573 637.76 517.01 637.279 516.295 636.939C515.58 636.6 514.778 636.43 513.887 636.43C512.961 636.43 512.147 636.617 511.444 636.992C510.752 637.355 510.213 637.883 509.826 638.574C509.451 639.254 509.264 640.039 509.264 640.93H505.59C505.59 639.406 505.948 638.059 506.662 636.887C507.377 635.715 508.368 634.807 509.633 634.162C510.91 633.518 512.358 633.195 513.975 633.195C515.58 633.195 517.01 633.512 518.264 634.145C519.518 634.766 520.496 635.627 521.2 636.729C521.914 637.818 522.272 639.043 522.272 640.402C522.272 641.375 522.09 642.312 521.727 643.215C521.364 644.117 520.748 645.113 519.881 646.203C519.014 647.293 517.772 648.635 516.155 650.229L510.969 655.484V655.678H522.694V659H505.59L505.573 656.188ZM535.14 659.352C533.183 659.352 531.507 658.842 530.112 657.822C528.718 656.803 527.651 655.314 526.913 653.357C526.175 651.4 525.806 649.039 525.806 646.273C525.806 643.531 526.175 641.182 526.913 639.225C527.651 637.268 528.724 635.773 530.13 634.742C531.536 633.711 533.206 633.195 535.14 633.195C537.073 633.195 538.743 633.711 540.149 634.742C541.556 635.773 542.628 637.268 543.366 639.225C544.105 641.182 544.474 643.531 544.474 646.273C544.474 649.039 544.105 651.4 543.366 653.357C542.64 655.314 541.573 656.803 540.167 657.822C538.772 658.842 537.097 659.352 535.14 659.352ZM535.14 656.029C536.276 656.029 537.255 655.654 538.075 654.904C538.907 654.154 539.54 653.053 539.974 651.6C540.407 650.135 540.618 648.359 540.606 646.273C540.606 644.188 540.39 642.412 539.956 640.947C539.522 639.482 538.896 638.369 538.075 637.607C537.255 636.846 536.276 636.465 535.14 636.465C534.003 636.465 533.024 636.846 532.204 637.607C531.384 638.369 530.751 639.482 530.306 640.947C529.86 642.412 529.638 644.188 529.638 646.273C529.638 648.359 529.855 650.135 530.288 651.6C530.722 653.053 531.355 654.154 532.187 654.904C533.019 655.654 534.003 656.029 535.14 656.029ZM547.761 656.188L556.603 647.275C557.67 646.174 558.49 645.283 559.064 644.604C559.638 643.924 560.066 643.256 560.347 642.6C560.64 641.932 560.787 641.24 560.787 640.525C560.787 639.717 560.582 639.002 560.172 638.381C559.761 637.76 559.199 637.279 558.484 636.939C557.769 636.6 556.967 636.43 556.076 636.43C555.15 636.43 554.336 636.617 553.633 636.992C552.941 637.355 552.402 637.883 552.015 638.574C551.64 639.254 551.453 640.039 551.453 640.93H547.779C547.779 639.406 548.136 638.059 548.851 636.887C549.566 635.715 550.556 634.807 551.822 634.162C553.099 633.518 554.547 633.195 556.164 633.195C557.769 633.195 559.199 633.512 560.453 634.145C561.707 634.766 562.685 635.627 563.388 636.729C564.103 637.818 564.461 639.043 564.461 640.402C564.461 641.375 564.279 642.312 563.916 643.215C563.553 644.117 562.937 645.113 562.07 646.203C561.203 647.293 559.961 648.635 558.344 650.229L553.158 655.484V655.678H564.883V659H547.779L547.761 656.188ZM567.362 650.896L578.577 633.547H581.038V638.152H579.438L571.405 650.545V650.756H586.838V654.025H567.362V650.896ZM579.702 653.094L579.719 651.652V633.547H583.393V659H579.702V653.094Z" fill="white"/>
</svg>
